HIERARCHY
ROOT Hips
{
	OFFSET	0.00	0.00	0.00
	CHANNELS 6 Xposition Yposition Zposition Zrotation Xrotation Yrotation
	JOINT Spine
	{
		OFFSET	 0.00	0.01	 0.00
		CHANNELS 3 Zrotation Xrotation Yrotation
		JOINT Spine1
		{
			OFFSET	 0.00	 2.45913012437421	 0.00
			CHANNELS 3 Zrotation Xrotation Yrotation
            JOINT Neck
            {
                OFFSET	 0.00	 2.48462964506057	 0.00
                CHANNELS 3 Zrotation Xrotation Yrotation
                JOINT Head
                {
                    OFFSET	 0.00	 0.927524780924562	 0.00
                    CHANNELS 3 Zrotation Xrotation Yrotation
                    End Site 
                    {
                        OFFSET	 0.00	 1.14999962169752	 0.00
                    }
                }
            }
			JOINT LeftShoulder
			{
				OFFSET	 0.00	 2.48462964506057	 0.00
				CHANNELS 3 Zrotation Xrotation Yrotation
				JOINT LeftUpArm
				{
					OFFSET	 0.00	 1.24881979654096	 0.00
					CHANNELS 3 Zrotation Xrotation Yrotation
					JOINT LeftForeArm
					{
						OFFSET	 0.00	2.59758046908119	 0.00
						CHANNELS 3 Zrotation Xrotation Yrotation
						JOINT LeftHand
						{
							OFFSET	 0.00	2.45542024364365	 0.00
							CHANNELS 3 Zrotation Xrotation Yrotation
							JOINT LeftHandThumb 
							{
								OFFSET	 0.00	0.00	 0.00
								CHANNELS 3 Zrotation Xrotation Yrotation
								End Site
								{
									OFFSET	 0.00	0.00	1.00000003353624
								}
							}
							JOINT L_Wrist_End 
							{
								OFFSET	 0.00	0.99999967115358	 0.00
								CHANNELS 3 Zrotation Xrotation Yrotation
								End Site 
								{
									OFFSET	 0.00	 0.00	 0.00
								}
							}
						}
					}
				}
			}
			JOINT RightShoulder
			{
				OFFSET	 0.00	 2.48462964506057	 0.00
				CHANNELS 3 Zrotation Xrotation Yrotation
				JOINT RightUpArm
				{
					OFFSET	 0.00	 1.24881979654096	 0.00
					CHANNELS 3 Zrotation Xrotation Yrotation
					JOINT RightForeArm
					{
						OFFSET	 0.00	2.59758046908119	 0.00
						CHANNELS 3 Zrotation Xrotation Yrotation
						JOINT RightHand
						{
							OFFSET	 0.00	2.45542024364365	 0.00
							CHANNELS 3 Zrotation Xrotation Yrotation
							JOINT RightHandThumb 
							{
								OFFSET	 0.00	0.00	 0.00
								CHANNELS 3 Zrotation Xrotation Yrotation
								End Site
								{
									OFFSET	 0.00	0.00	1.00000003353624
								}
							}
							JOINT R_Wrist_End 
							{
								OFFSET	 0.00	0.99999967115358	 0.00
								CHANNELS 3 Zrotation Xrotation Yrotation
								End Site 
								{
									OFFSET	 0.00	 0.00	 0.00
								}
							}
						}
					}
				}
			}
		}
	}
	JOINT LeftUpLeg
	{
		OFFSET	 1.2719394002717	 0.00	 0.00
		CHANNELS 3 Zrotation Xrotation Yrotation
		JOINT LeftLowLeg
		{
			OFFSET	 0.00	-4.3429100912261	 0.00
			CHANNELS 3 Zrotation Xrotation Yrotation
			JOINT LeftFoot
			{
				OFFSET	 0.00	-4.48767017425826	 0.00
				CHANNELS 3 Zrotation Xrotation Yrotation
				JOINT LeftToeBase
                {
                    OFFSET	 0.00	0.00	 1.51507020887566
                    CHANNELS 3 Zrotation Xrotation Yrotation
                    End Site 
                    {
                        OFFSET	 0.00	0.00	 0.75000010571191
                    }
                }
			}
		}
	}
	JOINT RightUpLeg
	{
		OFFSET	 -1.2719393604653	 0.00	 0.00
		CHANNELS 3 Zrotation Xrotation Yrotation
		JOINT RightLowLeg
		{
			OFFSET	 0.00	-4.3429100912261	 0.00
			CHANNELS 3 Zrotation Xrotation Yrotation
			JOINT RightFoot
			{
				OFFSET	 0.00	-4.48767017425826	 0.00
				CHANNELS 3 Zrotation Xrotation Yrotation
				JOINT RightToeBase
                {
                    OFFSET	 0.00	0.00	 1.51507020887566
                    CHANNELS 3 Zrotation Xrotation Yrotation
                    End Site 
                    {
                        OFFSET	 0.00	0.00	 0.749999965609858
                    }
                }   
			}
		}
	}
}
MOTION 
Frames:	11 
Frame Time: 0.02 
 -1.8042900085449218 3.1502700805664063 9.324520263671875 -169.189 70.1218 166.928 6.53027 -30.4729 1.05712 -4.36595 5.533 3.06682 15.696 42.3208 -3.10457 -19.7082 -69.81 -9.78031 -119.0299 -0.488919 7.77154 -41.713 4.4437 20.3655 0.0 17.5196 0.0 6.17367 -13.0626 23.271 0.0 0.0 0.0 0.0 0.0 0.0 122.1784 -3.53936 -4.443 45.3172 1.12607 -377.735 0.0 10.2242 0.0 -0.48037 -7.1798 -7.52423 0.0 0.0 0.0 0.0 0.0 0.0 -0.150392 -14.4105 -25.2544 0.0 4.7941 0.0 1.26267 -4.368799 22.7615 0.0 -10.68012 0.0 9.53114 -14.1581 392.882 0.0 4.43487 0.0 3.09683 2.6752996 -29.0132 0.0 -18.14 0.0 
  -1.8042399597167968 3.1496200561523438 9.324580078125 -169.146 70.1146 166.899 6.49287 -30.4905 1.03226 -4.32171 5.57609 3.09751 15.6662 42.3268 -3.06261 -19.7204 -69.8327 -9.83503 -119.0243 -0.49971 7.74788 -41.7672 4.50618 19.9556 0.0 17.0677 0.0 6.20706 -13.0733 23.4556 0.0 0.0 0.0 0.0 0.0 0.0 122.1868 -3.51861 -4.44377 45.3161 1.13089 -377.689 0.0 10.1619 0.0 -0.773313 -7.098 -7.26719 0.0 0.0 0.0 0.0 0.0 0.0 -0.141377 -14.4169 -25.3025 0.0 4.80547 0.0 1.26156 -4.379801 22.7928 0.0 -10.670441 0.0 9.54376 -14.1568 392.865 0.0 4.43258 0.0 3.08409 2.6866999 -29.0187 0.0 -18.13759 0.0 
  -1.804429931640625 3.14843994140625 9.324609985351563 -169.086 70.1072 166.882 6.44229 -30.5203 0.981597 -4.27391 5.62883 3.11457 15.6735 42.3066 -3.07738 -19.7069 -69.8323 -9.82706 -119.0178 -0.506985 7.70904 -41.8764 4.55005 19.5144 0.0 16.6063 0.0 6.35561 -13.056 23.7274 0.0 0.0 0.0 0.0 0.0 0.0 122.191 -3.49929 -4.46036 45.3065 1.13403 -377.613 0.0 10.2131 0.0 -0.923638 -7.22283 -7.18152 0.0 0.0 0.0 0.0 0.0 0.0 -0.129841 -14.4212 -25.3567 0.0 4.81291 0.0 1.26394 -4.385599 22.8047 0.0 -10.6931 0.0 9.54947 -14.1375 392.783 0.0 4.3992 0.0 3.03957 2.7181997 -29.0068 0.0 -18.13248 0.0 
  -1.8041900634765624 3.147969970703125 9.32469970703125 -169.063 70.1108 166.87 6.39951 -30.5233 0.94532 -4.22043 5.67265 3.1361 15.6506 42.2903 -3.05489 -19.719 -69.8478 -9.86728 -119.0205 -0.50724 7.66123 -41.9982 4.55406 19.2586 0.0 16.229 0.0 6.57851 -13.1374 23.7321 0.0 0.0 0.0 0.0 0.0 0.0 122.214294 -3.49477 -4.45548 45.2636 1.14612 -377.82 0.0 10.2865 0.0 -1.11865 -7.35102 -6.95878 0.0 0.0 0.0 0.0 0.0 0.0 -0.124569 -14.4089 -25.3703 0.0 4.80143 0.0 1.25754 -4.382099 22.8033 0.0 -10.68756 0.0 9.54951 -14.1228 392.753 0.0 4.38343 0.0 3.02191 2.7368002 -29.0081 0.0 -18.13403 0.0 
  -1.8038099670410157 3.148489990234375 9.32469970703125 -169.055 70.1061 166.864 6.37371 -30.4955 0.923871 -4.19068 5.66958 3.14138 15.6473 42.2716 -3.04656 -19.6906 -69.8633 -9.86595 -119.008896 -0.503177 7.62195 -42.1732 4.54107 18.9308 0.0 15.8769 0.0 6.80318 -13.1774 23.8331 0.0 0.0 0.0 0.0 0.0 0.0 122.2181 -3.48929 -4.45856 45.2637 1.16865 -377.831 0.0 10.326 0.0 -1.16097 -7.38133 -6.85806 0.0 0.0 0.0 0.0 0.0 0.0 -0.120929 -14.4172 -25.3629 0.0 4.80217 0.0 1.24605 -4.387699 22.7814 0.0 -10.68269 0.0 9.55084 -14.1295 392.737 0.0 4.38205 0.0 3.023 2.7392998 -28.9948 0.0 -18.13561 0.0 
  -1.8032200622558594 3.14885986328125 9.324749755859376 -169.031 70.0958 166.821 6.37307 -30.4676 0.922491 -4.15406 5.65885 3.13911 15.6455 42.2629 -3.04875 -19.7171 -69.8858 -9.90414 -119.0099 -0.504439 7.6343 -42.3523 4.52673 18.6648 0.0 15.611 0.0 6.90635 -13.1669 23.8207 0.0 0.0 0.0 0.0 0.0 0.0 122.201996 -3.4908 -4.46189 45.2873 1.19488 -377.864 0.0 10.3398 0.0 -1.15974 -7.23629 -6.84481 0.0 0.0 0.0 0.0 0.0 0.0 -0.104221 -14.4186 -25.3657 0.0 4.78719 0.0 1.24633 -4.391199 22.7981 0.0 -10.6854 0.0 9.56406 -14.1457 392.724 0.0 4.39282 0.0 3.0331 2.7472 -28.9543 0.0 -18.147049 0.0 
  -1.802779998779297 3.149010009765625 9.3247998046875 -169.034 70.0857 166.785 6.37304 -30.4491 0.915711 -4.11962 5.66122 3.13133 15.6313 42.2437 -3.03494 -19.7185 -69.903 -9.93287 -119.0198 -0.523578 7.68211 -42.5361 4.49715 18.4113 0.0 15.48 0.0 7.03894 -13.181 23.8282 0.0 0.0 0.0 0.0 0.0 0.0 122.191895 -3.47033 -4.46852 45.2968 1.20963 -377.918 0.0 10.3926 0.0 -1.05307 -7.16714 -6.74373 0.0 0.0 0.0 0.0 0.0 0.0 -0.0852837 -14.4109 -25.3136 0.0 4.75625 0.0 1.2238 -4.3939 22.7693 0.0 -10.68192 0.0 9.57507 -14.1605 392.724 0.0 4.40163 0.0 3.01997 2.7633 -28.9239 0.0 -18.13843 0.0 
  -1.8024200439453124 3.14927001953125 9.324860229492188 -169.06 70.0773 166.771 6.36441 -30.423 0.904518 -4.08718 5.65734 3.12734 15.636 42.2337 -3.03352 -19.7218 -69.9397 -9.94964 -119.0244 -0.540364 7.71015 -42.7479 4.45158 18.1903 0.0 15.3982 0.0 7.02163 -13.1555 23.7722 0.0 0.0 0.0 0.0 0.0 0.0 122.1586 -3.46919 -4.45947 45.3487 1.24401 -377.774 0.0 10.3767 0.0 -0.878771 -7.0322 -6.95822 0.0 0.0 0.0 0.0 0.0 0.0 -0.0717416 -14.4009 -25.2594 0.0 4.7199 0.0 1.19556 -4.3957996 22.7335 0.0 -10.6773205 0.0 9.57925 -14.1785 392.72 0.0 4.41358 0.0 3.01697 2.7707996 -28.8835 0.0 -18.15456 0.0 
  -1.802030029296875 3.149800109863281 9.324819946289063 -169.064 70.0688 166.758 6.36078 -30.4032 0.87759 -4.05415 5.66225 3.09701 15.6189 42.2392 -3.01882 -19.78 -69.9732 -10.0465 -119.0468 -0.527909 7.73017 -42.9157 4.32117 18.1684 0.0 15.4757 0.0 6.84564 -13.1117 23.5158 0.0 0.0 0.0 0.0 0.0 0.0 122.178 -3.44657 -4.46479 45.3083 1.28589 -377.922 0.0 10.5144 0.0 -0.802074 -7.24143 -7.08157 0.0 0.0 0.0 0.0 0.0 0.0 -0.0593441 -14.3977 -25.255 0.0 4.69247 0.0 1.15993 -4.4083996 22.7167 0.0 -10.654181 0.0 9.58758 -14.1987 392.726 0.0 4.43402 0.0 3.01828 2.7703 -28.8694 0.0 -18.1654 0.0 
  -1.801739959716797 3.149700012207031 9.324769897460937 -169.093 70.0572 166.733 6.36959 -30.4014 0.872984 -4.02356 5.69096 3.08521 15.6212 42.2373 -3.02334 -19.8152 -70.0102 -10.1127 -119.075195 -0.530213 7.77399 -43.059 4.2018 18.4082 0.0 15.678 0.0 6.86304 -13.1531 23.4248 0.0 0.0 0.0 0.0 0.0 0.0 122.1662 -3.43076 -4.45801 45.3418 1.33402 -377.903 0.0 10.4888 0.0 -0.767543 -7.14885 -6.69905 0.0 0.0 0.0 0.0 0.0 0.0 -0.0448669 -14.3869 -25.2278 0.0 4.65791 0.0 1.1462 -4.4111004 22.7268 0.0 -10.65624 0.0 9.5946 -14.2159 392.761 0.0 4.44413 0.0 3.02385 2.7741003 -28.8467 0.0 -18.16973 0.0 
  -1.8013299560546876 3.1495700073242188 9.32458984375 -169.118 70.0429 166.698 6.39873 -30.4078 0.885851 -4.00444 5.74084 3.07168 15.6467 42.203 -3.07035 -19.8334 -70.0296 -10.1328 -119.1118 -0.524058 7.82665 -43.1607 4.07685 18.7421 0.0 15.9699 0.0 6.70466 -13.0674 23.1419 0.0 0.0 0.0 0.0 0.0 0.0 122.1593 -3.40985 -4.43859 45.3714 1.38086 -377.929 0.0 10.4973 0.0 -0.800866 -7.22564 -6.6264 0.0 0.0 0.0 0.0 0.0 0.0 -0.031763 -14.3813 -25.2482 0.0 4.63492 0.0 1.13516 -4.4263 22.7887 0.0 -10.6489105 0.0 9.60666 -14.2399 392.79 0.0 4.46513 0.0 3.02857 2.7706003 -28.8108 0.0 -18.16738 0.0 
